<svg fill="white" version="1.1" id="Capa_1" xmlns="http://www.w3.org/2000/svg" xmlns:xlink="http://www.w3.org/1999/xlink" x="0px" y="0px"
	 viewBox="0 0 395 395" style="enable-background:new 0 0 395 395;" xml:space="preserve">
<g>
	<path d="M313.001,0H81.999C36.785,0,0,36.784,0,81.998v230.993C0,358.211,36.785,395,81.999,395h231.002
		C358.216,395,395,358.211,395,312.991V81.998C395,36.784,358.216,0,313.001,0z M380,312.991C380,349.94,349.945,380,313.001,380
		H81.999C45.056,380,15,349.94,15,312.991V81.998C15,45.056,45.056,15,81.999,15h231.002C349.945,15,380,45.056,380,81.998V312.991z
		"/>
	<path d="M332.036,110.063c-1.667-0.475-3.461-0.008-4.688,1.217l-31.456,31.455l-34.422-9.223l-9.223-34.422l31.455-31.455
		c1.226-1.227,1.692-3.02,1.218-4.688c-0.474-1.668-1.814-2.947-3.501-3.346c-5.482-1.295-11.123-1.949-16.766-1.949
		c-19.409,0-37.654,7.555-51.375,21.275c-13.726,13.727-21.286,31.977-21.286,51.389c0,9.383,1.782,18.488,5.157,26.947
		L66.038,288.375c-11.203,11.203-11.203,29.367,0,40.57c5.601,5.602,12.943,8.402,20.285,8.402s14.684-2.801,20.285-8.402
		l131.112-131.111c8.459,3.375,17.564,5.156,26.946,5.156c0.003,0,0.003,0,0.005,0c19.409,0,37.658-7.559,51.385-21.285
		c17.936-17.938,25.162-43.41,19.327-68.143C334.984,111.875,333.704,110.535,332.036,110.063z"/>
</g>
<g>
</g>
<g>
</g>
<g>
</g>
<g>
</g>
<g>
</g>
<g>
</g>
<g>
</g>
<g>
</g>
<g>
</g>
<g>
</g>
<g>
</g>
<g>
</g>
<g>
</g>
<g>
</g>
<g>
</g>
</svg>
