<svg xmlns="http://www.w3.org/2000/svg" viewBox="0 0 48 48"  fill="rgba(132, 142, 156, 0.9)">
    <path d="M26.396 25.884l.177-.177-.178-.177-.665-.662-.177-.176-.177.177-2.249 2.253-2.249-2.25 2.253-2.253.177-.176-.177-.177-.662-.662-.176-.177-.177.177-2.257 2.25-2.076-2.077-.178-.177-.177.178-1.97 1.985s0 0 0 0a6.208 6.208 0 00-.477 8.24L8.823 38.16l-.177.177.177.177.662.662.177.176.177-.176 6.158-6.159a6.177 6.177 0 003.85 1.342 6.2 6.2 0 004.39-1.814s0 0 0 0l1.985-1.975.178-.176-.177-.178-2.08-2.08 2.253-2.253zm-8.79-2.244l6.754 6.753-1.138 1.129-.074.073v.003a4.78 4.78 0 01-6.674-.072 4.777 4.777 0 01.003-6.747l.001-.001 1.129-1.138zM39.177 9.839l.176-.177-.176-.177-.662-.662-.177-.177-.177.177-6.158 6.158a6.212 6.212 0 00-8.24.473s0 0 0 0l-1.985 1.974-.178.177.177.178 8.44 8.44.178.177.177-.178 1.97-1.985s0 0 0 0a6.208 6.208 0 00.477-8.24l6.158-6.158zM31.523 23.22l-.001.001-1.129 1.138-6.753-6.753 1.138-1.129.074-.073v-.003a4.78 4.78 0 016.674.072 4.777 4.777 0 01-.003 6.747z" stroke-width="0.5"></path>
</svg>