<svg xmlns="http://www.w3.org/2000/svg"  viewBox="0 0 1024 1024" fill="white">
    <path d="M328.96 614.698667H142.08A379.221333 379.221333 0 0 1 128 512c0-35.541333 4.821333-69.76 14.08-102.698667h186.88A1127.296 1127.296 0 0 0 324.650667 512c0 34.218667 1.28 68.906667 4.394666 102.698667zM338.218667 691.498667c10.965333 71.509333 29.397333 136.490667 53.973333 185.6a384.554667 384.554667 0 0 1-219.434667-185.6h165.461334zM392.192 146.858667c-24.576 49.152-43.008 114.133333-53.973333 185.642666H172.757333a384.554667 384.554667 0 0 1 219.434667-185.6zM607.658667 691.498667c-21.034667 125.056-62.293333 195.712-89.941334 204.501333h-11.434666c-27.648-8.789333-68.906667-79.445333-89.941334-204.501333h191.317334zM607.658667 332.501333H416.341333c21.034667-125.056 62.293333-195.712 89.941334-204.501333h11.434666c27.648 8.789333 68.906667 79.445333 89.941334 204.501333zM618.24 409.301333c2.56 31.573333 4.352 65.834667 4.352 102.698667 0 36.437333-1.749333 70.656-4.394667 102.698667H405.802667A1232 1232 0 0 1 401.408 512c0-36.437333 1.749333-70.656 4.394667-102.698667h212.394666zM685.781333 691.498667h165.461334a384.554667 384.554667 0 0 1-219.434667 185.6c24.576-49.109333 43.008-114.090667 53.973333-185.6zM685.781333 332.501333c-10.965333-71.509333-29.397333-136.490667-53.973333-185.6a384.554667 384.554667 0 0 1 219.434667 185.6h-165.461334zM896 512c0 35.541333-4.821333 69.76-14.08 102.698667h-186.88c3.029333-33.365333 4.352-68.010667 4.352-102.698667 0-34.218667-1.28-68.906667-4.394667-102.698667h186.965334c9.216 32.938667 14.037333 67.157333 14.037333 102.698667z"></path>
</svg>