<svg width="125" height="38" viewBox="0 0 125 38" fill="none" xmlns="http://www.w3.org/2000/svg">
<path d="M0 5C0 2.23858 2.23858 0 5 0H120C122.761 0 125 2.23858 125 5V33C125 35.7614 122.761 38 120 38H5C2.23858 38 0 35.7614 0 33V5Z" fill="white"/>
<path fill-rule="evenodd" clip-rule="evenodd" d="M120 1H5C2.79086 1 1 2.79086 1 5V33C1 35.2091 2.79086 37 5 37H120C122.209 37 124 35.2091 124 33V5C124 2.79086 122.209 1 120 1ZM5 0C2.23858 0 0 2.23858 0 5V33C0 35.7614 2.23858 38 5 38H120C122.761 38 125 35.7614 125 33V5C125 2.23858 122.761 0 120 0H5Z" fill="#212833"/>
<path d="M22.8906 11.9008C22.7052 12.0228 22.5625 12.1995 22.4824 12.4064C22.401 12.6742 22.4125 12.9616 22.515 13.222C22.5986 13.4964 22.7673 13.7372 22.9968 13.9094C23.1137 13.9914 23.2489 14.0438 23.3906 14.0619C23.5325 14.0797 23.6766 14.0547 23.8042 13.99C23.9564 13.9058 24.0769 13.7741 24.1474 13.615C24.2164 13.4557 24.2548 13.2848 24.2605 13.1113C24.2759 12.8906 24.2481 12.669 24.1787 12.4589C24.1035 12.23 23.955 12.0323 23.7562 11.8964C23.6553 11.8309 23.5415 11.7883 23.4225 11.7714C23.3031 11.7544 23.1814 11.7679 23.0688 11.8108C23.0054 11.8365 22.9452 11.8694 22.8894 11.9089" fill="white"/>
<path d="M29.0619 20.7382C28.9517 20.1261 28.7793 19.5268 28.5475 18.9496C28.3895 18.52 28.1747 18.1136 27.9089 17.741C27.6401 17.3835 27.3014 17.0823 27.0382 16.7204C26.8995 16.5329 26.782 16.3229 26.6376 16.1373C26.5788 16.0168 26.5215 15.8956 26.4657 15.7737C26.2921 15.3956 26.1344 15.0081 25.9282 14.6487C25.8962 14.5922 25.8627 14.5366 25.8276 14.4819C25.8014 14.1357 25.7651 13.79 25.7463 13.4432C25.7623 12.7474 25.7039 12.0518 25.572 11.3683C25.4819 11.0406 25.3429 10.7284 25.1596 10.4421C24.9477 10.1046 24.6742 9.80986 24.3534 9.5734C23.8313 9.20388 23.2081 9.00423 22.5685 9.00162C22.0983 8.99018 21.6329 9.09767 21.2154 9.31412C20.7757 9.5541 20.4207 9.92376 20.1987 10.3728C19.9897 10.8247 19.8793 11.316 19.875 11.8139C19.8587 12.3014 19.9038 12.7889 19.9219 13.277C19.9407 13.7837 19.9306 14.2925 19.9725 14.7981C19.9862 14.9612 20.005 15.1237 20.0043 15.2875C20.0043 15.3687 19.9993 15.4512 19.998 15.5325L19.9917 15.55C19.7708 15.9247 19.5266 16.2851 19.2605 16.6292C19.0753 16.8649 18.8878 17.0989 18.698 17.3311C18.4539 17.6062 18.2466 17.9119 18.0813 18.2404C17.971 18.527 17.8812 18.821 17.8126 19.1203L17.8057 19.1453C17.7023 19.4883 17.5721 19.8227 17.4163 20.1453C17.4019 20.1754 17.3869 20.2078 17.3725 20.2353C17.2785 20.4284 17.181 20.6199 17.08 20.8095L16.9631 21.0289C16.8894 21.1604 16.824 21.2965 16.7675 21.4363C16.7348 21.5201 16.7105 21.607 16.695 21.6957C16.6676 21.8836 16.6795 22.0751 16.73 22.2582C16.7419 22.3041 16.7557 22.3496 16.7713 22.3944C16.8184 22.5291 16.8752 22.6603 16.9413 22.7869C16.9713 22.845 17.0038 22.9024 17.0344 22.9594L17.0625 23.0005C17.0937 23.0546 17.1258 23.1082 17.1587 23.1612L17.1625 23.1675C17.2003 23.2274 17.2395 23.2863 17.28 23.3443L17.2857 23.3525C17.3269 23.4097 17.3685 23.4665 17.4107 23.523C17.5716 24.1479 17.8644 24.7312 18.2694 25.2336C18.2069 25.3429 18.15 25.4536 18.0869 25.5615C17.8665 25.8812 17.6845 26.2257 17.5445 26.5878C17.4855 26.7735 17.4714 26.9706 17.5032 27.1628C17.536 27.356 17.6366 27.5312 17.7869 27.657C17.888 27.7348 18.0052 27.789 18.13 27.8157C18.2543 27.8425 18.3815 27.8537 18.5087 27.8489C18.9902 27.8116 19.4657 27.7179 19.9254 27.5695C20.2021 27.497 20.4807 27.432 20.7609 27.3746C21.0526 27.3076 21.3499 27.267 21.6489 27.2534C21.7226 27.2534 21.7964 27.2534 21.8695 27.2459C22.0726 27.2685 22.2771 27.276 22.4813 27.2684L22.5563 27.2641C22.6094 27.2704 22.6626 27.2735 22.7157 27.2766C23.0745 27.2971 23.4331 27.3322 23.7881 27.386C24.101 27.433 24.4115 27.4943 24.7188 27.5697C25.1931 27.7133 25.6811 27.8069 26.1748 27.849C26.3052 27.8549 26.4358 27.8446 26.5637 27.8183C26.6918 27.792 26.8123 27.7369 26.916 27.6571C27.0666 27.5312 27.1674 27.3557 27.2004 27.1622C27.2322 26.9695 27.2177 26.772 27.158 26.586C27.0162 26.2238 26.8306 25.8803 26.6055 25.563C26.5268 25.4304 26.4536 25.2948 26.3755 25.163C26.7116 24.7878 27.0068 24.3779 27.2561 23.9401C27.4066 23.9495 27.5576 23.9304 27.7011 23.8838C28.0809 23.7562 28.4096 23.5097 28.6384 23.1807C28.7083 23.0834 28.7613 22.975 28.7953 22.86C28.9439 22.6274 29.0458 22.368 29.0952 22.0964C29.1653 21.6453 29.1541 21.1853 29.0619 20.7382V20.7382Z" fill="#020204"/>
<path d="M20.7345 14.6056C20.6677 14.6927 20.6202 14.793 20.5951 14.8999C20.5702 15.0065 20.5566 15.1154 20.5545 15.2249C20.5612 15.4433 20.5429 15.6618 20.5001 15.8761C20.4245 16.0982 20.3105 16.3053 20.1632 16.4879C19.9102 16.8058 19.7111 17.163 19.5738 17.5453C19.5035 17.7814 19.4804 18.029 19.5057 18.2741C19.2427 18.6615 19.0156 19.0721 18.8271 19.5008C18.536 20.1489 18.3497 20.8391 18.2752 21.5456C18.1825 22.4133 18.3089 23.2904 18.6427 24.0967C18.8866 24.6779 19.2587 25.1964 19.7313 25.6134C19.9728 25.8229 20.2401 26.0004 20.5269 26.1415C21.0252 26.3852 21.5736 26.5093 22.1283 26.5038C22.683 26.4984 23.2288 26.3636 23.7223 26.1102C24.222 25.8179 24.6785 25.4571 25.0784 25.0384C25.3356 24.8041 25.5662 24.5421 25.7659 24.2571C26.1011 23.6738 26.2976 23.0212 26.3401 22.3498C26.547 21.189 26.4198 19.9933 25.9734 18.902C25.7981 18.5383 25.566 18.2048 25.2859 17.914C25.2107 17.4053 25.0634 16.9099 24.8484 16.4428C24.6934 16.1066 24.5046 15.786 24.3609 15.4429C24.3021 15.3029 24.2509 15.1592 24.1853 15.0223C24.1233 14.8828 24.0365 14.7558 23.9291 14.6473C23.8144 14.5411 23.6776 14.4617 23.5285 14.4148C23.3797 14.3682 23.2254 14.3417 23.0697 14.336C22.7572 14.3204 22.4447 14.361 22.136 14.3485C21.886 14.3385 21.6417 14.2954 21.3942 14.3098C21.2701 14.3153 21.1477 14.3411 21.0318 14.386C20.9156 14.4313 20.813 14.5055 20.7337 14.6016L20.7345 14.6056ZM20.8345 11.9008C20.7173 11.9095 20.6068 11.9588 20.522 12.0402C20.438 12.1215 20.3755 12.2225 20.3402 12.334C20.2814 12.5599 20.2676 12.7952 20.2996 13.0265C20.3038 13.2375 20.3407 13.4467 20.409 13.6464C20.4472 13.7449 20.5043 13.8349 20.5771 13.9114C20.6504 13.9879 20.7434 14.0428 20.8458 14.0701C20.9424 14.0934 21.0436 14.0897 21.1383 14.0595C21.2324 14.0289 21.318 13.9767 21.3883 13.907C21.4898 13.8036 21.563 13.6758 21.6008 13.5359C21.6381 13.3964 21.6548 13.2521 21.6501 13.1078C21.6498 12.9271 21.6219 12.7476 21.5676 12.5753C21.5129 12.4025 21.4198 12.2444 21.2952 12.1128C21.235 12.0492 21.1644 11.9964 21.0865 11.9565C21.0082 11.9167 20.9211 11.8975 20.8334 11.9009L20.8345 11.9008ZM22.8906 11.9008C22.7052 12.0228 22.5626 12.1995 22.4824 12.4064C22.4011 12.6742 22.4126 12.9616 22.515 13.222C22.5986 13.4964 22.7673 13.7372 22.9968 13.9094C23.1138 13.9914 23.2489 14.0438 23.3906 14.0619C23.5326 14.0797 23.6766 14.0547 23.8042 13.99C23.9564 13.9058 24.077 13.7741 24.1474 13.615C24.2164 13.4557 24.2548 13.2848 24.2605 13.1113C24.2759 12.8906 24.2482 12.669 24.1787 12.4589C24.1036 12.23 23.955 12.0323 23.7562 11.8964C23.6554 11.8309 23.5415 11.7883 23.4225 11.7714C23.3031 11.7544 23.1814 11.7679 23.0688 11.8108C23.0054 11.8365 22.9452 11.8694 22.8894 11.9089" fill="white"/>
<path d="M23.3094 12.4483C23.241 12.4531 23.1749 12.4745 23.1168 12.5108C23.0589 12.5478 23.0091 12.5963 22.9706 12.6532C22.8961 12.7689 22.8556 12.9032 22.8537 13.0407C22.8482 13.1435 22.8622 13.2463 22.8949 13.3438C22.9283 13.441 22.9873 13.5273 23.0656 13.5938C23.1472 13.6614 23.2484 13.7008 23.3542 13.7063C23.46 13.7113 23.5646 13.6815 23.6517 13.6213C23.7204 13.5726 23.7765 13.5083 23.8155 13.4338C23.8545 13.3593 23.8797 13.2784 23.8899 13.195C23.9107 13.0475 23.8863 12.8972 23.8199 12.7638C23.7525 12.6306 23.638 12.527 23.4986 12.4733C23.4389 12.4504 23.375 12.4403 23.3111 12.4439" fill="#020204"/>
<path d="M20.8344 11.9008C20.7172 11.9095 20.6067 11.9588 20.5219 12.0402C20.4379 12.1215 20.3754 12.2225 20.3402 12.334C20.2813 12.5599 20.2675 12.7952 20.2995 13.0264C20.3038 13.2375 20.3407 13.4467 20.4089 13.6464C20.4471 13.7449 20.5042 13.8349 20.577 13.9114C20.6504 13.9879 20.7433 14.0428 20.8457 14.0701C20.9424 14.0934 21.0435 14.0897 21.1382 14.0595C21.2323 14.0289 21.3179 13.9766 21.3882 13.907C21.4898 13.8036 21.563 13.6758 21.6007 13.5358C21.6381 13.3963 21.6547 13.2521 21.6501 13.1077C21.6497 12.9271 21.6219 12.7476 21.5676 12.5753C21.5129 12.4025 21.4197 12.2444 21.2951 12.1128C21.2349 12.0492 21.1643 11.9964 21.0864 11.9565C21.0082 11.9167 20.9211 11.8975 20.8333 11.9009" fill="white"/>
<path d="M20.5538 12.8632C20.525 13.0088 20.5337 13.1593 20.5788 13.3007C20.6131 13.3936 20.6658 13.4786 20.7338 13.5507C20.7764 13.599 20.8278 13.6388 20.8851 13.6682C20.943 13.6975 21.0093 13.7058 21.0726 13.6919C21.1302 13.6759 21.1811 13.6417 21.2176 13.5944C21.2537 13.5471 21.2806 13.4934 21.297 13.4363C21.3461 13.2671 21.3433 13.087 21.2888 12.9195C21.2549 12.7958 21.1864 12.6844 21.0913 12.5983C21.0452 12.5583 20.9905 12.5296 20.9313 12.5146C20.871 12.499 20.8072 12.5041 20.75 12.529C20.689 12.5593 20.6398 12.609 20.61 12.6703C20.5806 12.7312 20.561 12.7964 20.5519 12.8634" fill="#020204"/>
<path d="M20.2808 14.6849C20.2847 14.7043 20.2919 14.7229 20.302 14.7399C20.3209 14.7693 20.3458 14.7944 20.3751 14.8136C20.4026 14.8336 20.432 14.8498 20.4607 14.868C20.6106 14.9694 20.7415 15.0963 20.8475 15.243C20.9785 15.4458 21.139 15.628 21.3237 15.7835C21.4653 15.8801 21.6292 15.9388 21.7999 15.9541C22 15.9696 22.2012 15.9462 22.3924 15.8853C22.5709 15.8339 22.7418 15.7588 22.9005 15.6623C23.1745 15.4408 23.4698 15.2471 23.7822 15.0842C23.8547 15.058 23.9297 15.0386 23.9991 15.0061C24.0709 14.9763 24.1304 14.923 24.1678 14.8549C24.1925 14.7851 24.2065 14.712 24.2091 14.638C24.2203 14.5599 24.2453 14.4837 24.2591 14.4062C24.2771 14.3284 24.2707 14.2471 24.241 14.173C24.2115 14.1138 24.1634 14.066 24.1041 14.0368C24.0455 14.0083 23.9817 13.9924 23.9166 13.9899C23.7857 13.9937 23.6552 14.0067 23.526 14.0287C23.353 14.0443 23.1792 14.0224 23.0054 14.0287C22.79 14.035 22.5768 14.0837 22.3612 14.0912C22.115 14.1031 21.8694 14.0649 21.6231 14.0549C21.5164 14.0487 21.4094 14.0537 21.3037 14.0699C21.1979 14.0861 21.0968 14.1251 21.0075 14.1843C20.9263 14.2492 20.8487 14.3184 20.7751 14.3918C20.7364 14.4267 20.6933 14.4563 20.647 14.4799C20.6003 14.5035 20.5487 14.5157 20.4964 14.5155C20.4699 14.5111 20.4429 14.5111 20.4164 14.5155C20.4006 14.5209 20.3863 14.5299 20.3746 14.5417C20.3628 14.5537 20.3523 14.5669 20.3433 14.5811C20.3214 14.6134 20.3024 14.6475 20.2864 14.683" fill="#D99A03"/>
<path d="M20.8232 14.14C20.7362 14.1924 20.6514 14.2483 20.5688 14.3075C20.5237 14.3346 20.486 14.3726 20.4594 14.4181C20.4451 14.4525 20.4382 14.4896 20.4394 14.5268C20.4415 14.5639 20.4415 14.601 20.4394 14.638C20.4363 14.663 20.4294 14.688 20.4281 14.7136C20.4275 14.7262 20.4288 14.7389 20.4319 14.7511C20.4352 14.7634 20.4414 14.7748 20.45 14.7842C20.4618 14.7959 20.4765 14.8043 20.4925 14.8086C20.5081 14.8136 20.5243 14.8161 20.5406 14.8198C20.6167 14.8415 20.6861 14.8819 20.7425 14.9373C20.8013 14.9898 20.8538 15.0492 20.915 15.0992C21.0873 15.2284 21.2978 15.2966 21.5131 15.293C21.7267 15.2888 21.939 15.2592 22.1456 15.2049C22.3081 15.171 22.4682 15.1265 22.625 15.0718C22.8669 14.9817 23.0905 14.8485 23.2849 14.6787C23.3688 14.5975 23.4588 14.5229 23.5542 14.4556C23.6417 14.4006 23.7417 14.3643 23.8286 14.3118C23.8366 14.3072 23.8444 14.302 23.8516 14.2962C23.8588 14.2904 23.8649 14.2832 23.8692 14.275C23.8753 14.26 23.8753 14.2431 23.8692 14.2281C23.8651 14.2139 23.8585 14.2006 23.8498 14.1887C23.8387 14.1751 23.8264 14.1625 23.813 14.1512C23.7145 14.0771 23.5951 14.0357 23.4718 14.033C23.3468 14.0236 23.2261 14.033 23.1055 14.0099C22.993 13.9858 22.8823 13.9537 22.7744 13.9137C22.6593 13.8764 22.5417 13.8478 22.4224 13.8281C22.1412 13.7831 21.8542 13.7901 21.5756 13.8488C21.3113 13.9047 21.058 14.0035 20.8256 14.1413" fill="#604405"/>
<path d="M20.7958 13.8444C20.6698 13.9294 20.5569 14.0323 20.4608 14.15C20.4036 14.2156 20.3587 14.291 20.3283 14.3725C20.3099 14.4383 20.2955 14.505 20.2852 14.5725C20.2789 14.5973 20.2751 14.6226 20.274 14.6481C20.274 14.6608 20.2759 14.6734 20.2796 14.6856C20.2835 14.698 20.2901 14.7093 20.299 14.7187C20.3145 14.7336 20.3341 14.7434 20.3553 14.7468C20.3759 14.7512 20.3971 14.7518 20.4178 14.7543C20.5126 14.7695 20.6023 14.8077 20.679 14.8655C20.7578 14.9199 20.8302 14.9824 20.9109 15.0336C21.093 15.1424 21.3005 15.2014 21.5126 15.2048C21.7237 15.2087 21.9345 15.1877 22.1407 15.1423C22.3059 15.1114 22.468 15.0658 22.6251 15.0061C22.8615 14.9048 23.0834 14.7727 23.2851 14.613C23.3794 14.5444 23.4694 14.4699 23.5544 14.3899C23.5831 14.3624 23.6106 14.3336 23.6413 14.3086C23.6713 14.2825 23.7061 14.2623 23.7437 14.2492C23.8024 14.2339 23.8639 14.2328 23.923 14.2461C23.9673 14.2559 24.0126 14.2611 24.058 14.2617C24.0808 14.262 24.1034 14.2585 24.1249 14.2511C24.1463 14.2428 24.1652 14.2293 24.1799 14.2117C24.1988 14.1882 24.2089 14.1588 24.2086 14.1286C24.2082 14.0987 24.1998 14.0693 24.1843 14.0436C24.1511 13.9934 24.103 13.9548 24.0468 13.9331C23.9707 13.9031 23.8921 13.88 23.8118 13.8642C23.5673 13.8048 23.3302 13.7182 23.105 13.606C22.9932 13.5505 22.8845 13.4892 22.7738 13.4299C22.6619 13.3663 22.5441 13.3139 22.4219 13.2736C22.1426 13.1973 21.8464 13.2106 21.575 13.3117C21.2721 13.4176 21.0028 13.6019 20.7945 13.8459" fill="#F5BD0C"/>
<path d="M22.2057 13.5012C22.2206 13.5499 22.2988 13.5418 22.3438 13.5637C22.3887 13.5856 22.4151 13.6262 22.4594 13.63C22.5037 13.6338 22.5682 13.615 22.5738 13.5731C22.5813 13.5175 22.5001 13.4818 22.4488 13.4619C22.4149 13.446 22.3782 13.4375 22.3408 13.4367C22.3034 13.4359 22.2663 13.443 22.2319 13.4575C22.2168 13.4662 22.2006 13.485 22.2057 13.5012ZM21.46 13.4737C21.4019 13.4549 21.3063 13.5568 21.335 13.6093C21.3438 13.6237 21.37 13.6418 21.3875 13.6324C21.405 13.623 21.4362 13.5649 21.465 13.5449C21.4869 13.5306 21.4825 13.4806 21.46 13.4737V13.4737Z" fill="#CD8907"/>
<path d="M30.738 25.5722C30.6941 25.6847 30.632 25.7892 30.5544 25.8816C30.3717 26.0757 30.1522 26.2314 29.9087 26.3396C29.4971 26.5296 29.096 26.7414 28.7069 26.9739C28.4536 27.1419 28.2164 27.3329 27.9981 27.5445C27.8183 27.7319 27.6258 27.9066 27.422 28.0676C27.2103 28.2244 26.9644 28.3285 26.7045 28.3713C26.3864 28.4121 26.0632 28.3632 25.7714 28.2301C25.5615 28.1498 25.3806 28.0083 25.2522 27.8238C25.1448 27.6256 25.0944 27.4015 25.1066 27.1763C25.1191 26.7798 25.1666 26.3852 25.2485 25.997C25.3059 25.6727 25.361 25.3477 25.396 25.0196C25.4563 24.423 25.4633 23.8221 25.4167 23.2242C25.4056 23.1243 25.4056 23.0235 25.4167 22.9236C25.4232 22.8257 25.4673 22.734 25.5396 22.6676C25.612 22.6013 25.7072 22.5654 25.8053 22.5673C25.8982 22.5658 25.9909 22.5735 26.0822 22.5903C26.2993 22.6156 26.5149 22.6529 26.7278 22.7022C26.8609 22.7372 26.9909 22.784 27.1241 22.8204C27.3457 22.8844 27.5775 22.9056 27.8071 22.8829C28.0482 22.8275 28.293 22.7891 28.5395 22.7679C28.6413 22.7713 28.742 22.789 28.8388 22.8204C28.9393 22.8477 29.0316 22.8992 29.1076 22.9704C29.1623 23.0279 29.2049 23.0959 29.2326 23.1703C29.2745 23.2802 29.3002 23.3955 29.3089 23.5128C29.3123 23.6174 29.3213 23.7217 29.3358 23.8253C29.3731 23.9931 29.4522 24.1487 29.5658 24.2778C29.6792 24.4041 29.8034 24.5204 29.937 24.6252C30.0677 24.7352 30.1989 24.844 30.3395 24.9377C30.4057 24.9826 30.4738 25.0252 30.5363 25.0745C30.6005 25.1228 30.6546 25.1831 30.6957 25.252C30.7485 25.3471 30.7643 25.4584 30.74 25.5644" fill="#F5BD0C"/>
<path d="M30.738 25.5723C30.694 25.6847 30.632 25.7892 30.5543 25.8816C30.3717 26.0757 30.1522 26.2314 29.9086 26.3396C29.4971 26.5297 29.0959 26.7414 28.7069 26.974C28.4536 27.142 28.2163 27.333 27.9981 27.5446C27.8182 27.7319 27.6257 27.9067 27.4219 28.0677C27.2103 28.2245 26.9644 28.3286 26.7045 28.3714C26.3864 28.4122 26.0632 28.3633 25.7714 28.2301C25.5615 28.1499 25.3805 28.0083 25.2521 27.8239C25.1447 27.6256 25.0943 27.4015 25.1065 27.1764C25.119 26.7799 25.1665 26.3852 25.2484 25.9971C25.3058 25.6728 25.3609 25.3478 25.3959 25.0197C25.4563 24.423 25.4632 23.8222 25.4166 23.2243C25.4055 23.1244 25.4055 23.0236 25.4166 22.9237C25.4232 22.8257 25.4672 22.734 25.5396 22.6677C25.612 22.6013 25.7071 22.5654 25.8053 22.5674C25.8981 22.5658 25.9909 22.5735 26.0822 22.5904C26.2993 22.6156 26.5148 22.653 26.7278 22.7023C26.8609 22.7373 26.9909 22.7841 27.1241 22.8205C27.3457 22.8844 27.5775 22.9056 27.807 22.883C28.0482 22.8275 28.2929 22.7891 28.5395 22.768C28.6412 22.7713 28.742 22.789 28.8388 22.8205C28.9393 22.8478 29.0316 22.8993 29.1076 22.9705C29.1623 23.028 29.2048 23.096 29.2326 23.1704C29.2745 23.2802 29.3002 23.3956 29.3089 23.5129C29.3123 23.6174 29.3212 23.7217 29.3358 23.8253C29.3731 23.9931 29.4522 24.1488 29.5657 24.2778C29.6792 24.4042 29.8033 24.5205 29.9369 24.6253C30.0676 24.7353 30.1988 24.8441 30.3394 24.9378C30.4056 24.9827 30.4738 25.0253 30.5363 25.0746C30.6004 25.1229 30.6545 25.1832 30.6957 25.2521C30.7485 25.3472 30.7642 25.4584 30.74 25.5645L30.738 25.5723ZM17.1373 22.2506C17.243 22.2086 17.3587 22.198 17.4703 22.2199C17.5825 22.2417 17.689 22.2866 17.7828 22.3518C17.9629 22.489 18.1178 22.6562 18.2409 22.8461C18.5459 23.266 18.839 23.6946 19.1053 24.1397C19.3209 24.5009 19.5189 24.8741 19.7684 25.2134C19.9309 25.4347 20.1145 25.6403 20.2783 25.8609C20.4491 26.0771 20.5784 26.3231 20.6596 26.5864C20.7546 26.9347 20.7167 27.3058 20.5533 27.6276C20.4374 27.8523 20.2618 28.0406 20.0458 28.1719C19.8294 28.3026 19.5798 28.3677 19.3272 28.3594C18.9297 28.3053 18.5444 28.1838 18.1878 28C17.4322 27.6988 16.6111 27.6045 15.8324 27.3701C15.593 27.2982 15.3574 27.2126 15.1168 27.1463C15.0087 27.121 14.9028 27.0871 14.8 27.0451C14.6972 27.0021 14.61 26.9289 14.55 26.8351C14.5065 26.7592 14.4849 26.6726 14.4875 26.5851C14.4904 26.4996 14.5075 26.4151 14.5381 26.3351C14.5968 26.1738 14.6911 26.0277 14.755 25.8683C14.8502 25.6035 14.8872 25.3213 14.8636 25.0409C14.8499 24.7608 14.8011 24.4834 14.7849 24.2034C14.7726 24.0784 14.7766 23.9524 14.7968 23.8285C14.813 23.7079 14.8678 23.5958 14.9531 23.509C15.0384 23.4222 15.1495 23.3654 15.2698 23.3472C15.3836 23.3268 15.4994 23.3195 15.6148 23.3253C15.7301 23.3314 15.8457 23.3314 15.961 23.3253C16.0766 23.319 16.1895 23.2874 16.2916 23.2328C16.3856 23.1755 16.4666 23.0991 16.5291 23.0085C16.5914 22.9182 16.6481 22.8243 16.6991 22.7272C16.7501 22.6301 16.81 22.5378 16.8779 22.4516C16.9462 22.3651 17.0346 22.2964 17.1353 22.2516" fill="#F5BD0C"/>
<path d="M17.1373 22.2506C17.243 22.2086 17.3587 22.1979 17.4703 22.2199C17.5825 22.2416 17.689 22.2865 17.7828 22.3517C17.9629 22.4889 18.1178 22.6561 18.2409 22.846C18.5459 23.2659 18.839 23.6946 19.1053 24.1397C19.3209 24.5008 19.5189 24.874 19.7684 25.2133C19.9309 25.4346 20.1145 25.6402 20.2783 25.8608C20.4491 26.077 20.5784 26.323 20.6596 26.5864C20.7546 26.9346 20.7167 27.3057 20.5533 27.6275C20.4374 27.8522 20.2618 28.0405 20.0458 28.1718C19.8294 28.3025 19.5798 28.3676 19.3272 28.3593C18.9297 28.3052 18.5444 28.1837 18.1878 27.9999C17.4322 27.6987 16.6111 27.6044 15.8324 27.37C15.593 27.2981 15.3574 27.2125 15.1168 27.1462C15.0087 27.1209 14.9028 27.087 14.8 27.0451C14.6972 27.0021 14.61 26.9288 14.55 26.8351C14.5065 26.7591 14.4849 26.6726 14.4875 26.5851C14.4904 26.4995 14.5075 26.415 14.5381 26.3351C14.5968 26.1738 14.6911 26.0276 14.755 25.8682C14.8502 25.6034 14.8872 25.3212 14.8636 25.0408C14.8499 24.7608 14.8011 24.4833 14.7849 24.2033C14.7726 24.0784 14.7766 23.9523 14.7968 23.8284C14.813 23.7078 14.8678 23.5957 14.9531 23.5089C15.0384 23.4222 15.1495 23.3654 15.2698 23.3471C15.3836 23.3268 15.4994 23.3194 15.6148 23.3252C15.7301 23.3313 15.8457 23.3313 15.961 23.3252C16.0766 23.3189 16.1895 23.2873 16.2916 23.2327C16.3856 23.1755 16.4666 23.099 16.5291 23.0084C16.5914 22.9182 16.6481 22.8242 16.6991 22.7271C16.7501 22.63 16.81 22.5377 16.8779 22.4515C16.9462 22.365 17.0346 22.2964 17.1353 22.2515" fill="#F5BD0C"/>
<path d="M17.3023 22.4337C17.3986 22.3967 17.5039 22.3897 17.6042 22.4137C17.7038 22.4379 17.797 22.4835 17.8773 22.5474C18.0317 22.6816 18.1609 22.8423 18.2591 23.0217C18.5185 23.4417 18.7715 23.8655 19.009 24.2986C19.18 24.6303 19.3727 24.9504 19.5859 25.2567C19.7334 25.4553 19.9021 25.6373 20.0527 25.8334C20.2102 26.0251 20.3296 26.245 20.4046 26.4815C20.4905 26.7923 20.4557 27.124 20.3071 27.4102C20.1995 27.6139 20.0372 27.7836 19.8384 27.9C19.6391 28.016 19.4107 28.0724 19.1803 28.0625C18.8185 28.0073 18.467 27.8985 18.1373 27.7396C17.478 27.5001 16.7624 27.4683 16.0875 27.2814C15.845 27.2159 15.6088 27.1277 15.365 27.0665C15.2562 27.0438 15.1492 27.0129 15.045 26.974C14.9402 26.9345 14.8509 26.8621 14.7906 26.7677C14.7506 26.6947 14.7316 26.6121 14.7356 26.529C14.7398 26.4462 14.7577 26.3646 14.7887 26.2877C14.8474 26.1333 14.9399 25.9934 14.9993 25.839C15.0807 25.6016 15.1095 25.3493 15.0837 25.0997C15.0669 24.8498 15.0212 24.6029 15.0087 24.3535C14.9991 24.2421 15.0041 24.1298 15.0237 24.0197C15.0437 23.909 15.0959 23.8067 15.1737 23.7254C15.2636 23.6424 15.3773 23.5897 15.4987 23.5748C15.6191 23.5602 15.7408 23.5602 15.8612 23.5748C15.9817 23.5894 16.103 23.5951 16.2243 23.5916C16.3462 23.5881 16.4649 23.5519 16.5681 23.4867C16.6578 23.4217 16.7305 23.3359 16.7799 23.2367C16.8291 23.1391 16.8721 23.0384 16.9087 22.9355C16.9456 22.8321 16.9942 22.7333 17.0537 22.6411C17.1145 22.5477 17.2015 22.4743 17.3037 22.43" fill="#F5BD0C"/>
<path d="M39.774 14H41.997C43.599 14 44.652 12.956 44.652 10.859C44.652 8.76203 43.599 7.71803 41.997 7.71803H39.774V14ZM40.791 13.1V8.61803H41.997C42.933 8.61803 43.563 9.22103 43.563 10.355V11.363C43.563 12.497 42.933 13.1 41.997 13.1H40.791Z" fill="#212833"/>
<path d="M47.6815 14.108C48.9865 14.108 49.8325 13.154 49.8325 11.66C49.8325 10.166 48.9865 9.21203 47.6815 9.21203C46.3765 9.21203 45.5305 10.166 45.5305 11.66C45.5305 13.154 46.3765 14.108 47.6815 14.108ZM47.6815 13.298C47.0155 13.298 46.5655 12.884 46.5655 12.056V11.264C46.5655 10.436 47.0155 10.022 47.6815 10.022C48.3475 10.022 48.7975 10.436 48.7975 11.264V12.056C48.7975 12.884 48.3475 13.298 47.6815 13.298Z" fill="#212833"/>
<path d="M51.6741 14H52.7541L53.3751 11.867L53.7441 10.553H53.7621L54.7521 14H55.8591L57.1191 9.32003H56.2101L55.7241 11.282L55.3101 13.055H55.2831L54.7881 11.282L54.2121 9.32003H53.3301L52.7631 11.282L52.2771 13.055H52.2501L51.8271 11.282L51.3501 9.32003H50.3961L51.6741 14Z" fill="#212833"/>
<path d="M59.0345 14V10.868C59.0345 10.319 59.5385 10.058 60.0515 10.058C60.6545 10.058 60.9335 10.427 60.9335 11.156V14H61.9145V11.03C61.9145 9.87803 61.3475 9.21203 60.3935 9.21203C59.6735 9.21203 59.2775 9.59003 59.0795 10.094H59.0345V9.32003H58.0535V14H59.0345Z" fill="#212833"/>
<path d="M64.9033 14V13.199H64.2553V7.34003H63.2743V13.028C63.2743 13.631 63.6073 14 64.2733 14H64.9033Z" fill="#212833"/>
<path d="M67.6767 14.108C68.9817 14.108 69.8277 13.154 69.8277 11.66C69.8277 10.166 68.9817 9.21203 67.6767 9.21203C66.3717 9.21203 65.5257 10.166 65.5257 11.66C65.5257 13.154 66.3717 14.108 67.6767 14.108ZM67.6767 13.298C67.0107 13.298 66.5607 12.884 66.5607 12.056V11.264C66.5607 10.436 67.0107 10.022 67.6767 10.022C68.3427 10.022 68.7927 10.436 68.7927 11.264V12.056C68.7927 12.884 68.3427 13.298 67.6767 13.298Z" fill="#212833"/>
<path d="M74.8987 14V13.199H74.4037V10.85C74.4037 9.80603 73.7287 9.21203 72.5227 9.21203C71.6137 9.21203 71.0647 9.59903 70.7587 10.121L71.3437 10.652C71.5777 10.283 71.9107 10.013 72.4597 10.013C73.1167 10.013 73.4227 10.346 73.4227 10.913V11.309H72.5767C71.2717 11.309 70.5787 11.786 70.5787 12.713C70.5787 13.559 71.1277 14.108 72.0907 14.108C72.7747 14.108 73.2787 13.802 73.4587 13.217H73.5037C73.5667 13.676 73.8367 14 74.3497 14H74.8987ZM72.3697 13.361C71.8837 13.361 71.5777 13.145 71.5777 12.731V12.569C71.5777 12.164 71.9107 11.939 72.5947 11.939H73.4227V12.614C73.4227 13.073 72.9727 13.361 72.3697 13.361Z" fill="#212833"/>
<path d="M78.8032 14H79.7842V7.34003H78.8032V10.094H78.7582C78.5602 9.53603 78.0652 9.21203 77.4442 9.21203C76.2652 9.21203 75.5812 10.121 75.5812 11.66C75.5812 13.199 76.2652 14.108 77.4442 14.108C78.0652 14.108 78.5602 13.775 78.7582 13.226H78.8032V14ZM77.7412 13.262C77.0662 13.262 76.6162 12.785 76.6162 12.065V11.255C76.6162 10.535 77.0662 10.058 77.7412 10.058C78.3352 10.058 78.8032 10.382 78.8032 10.859V12.461C78.8032 12.938 78.3352 13.262 77.7412 13.262Z" fill="#212833"/>
<path d="M83.5563 14H84.5373V10.121H85.5183V9.32003H84.5373V8.14103H85.5183V7.34003H84.7443C83.9613 7.34003 83.5563 7.79003 83.5563 8.54603V9.32003H82.8453V10.121H83.5563V14Z" fill="#212833"/>
<path d="M88.1728 14.108C89.4778 14.108 90.3238 13.154 90.3238 11.66C90.3238 10.166 89.4778 9.21203 88.1728 9.21203C86.8678 9.21203 86.0218 10.166 86.0218 11.66C86.0218 13.154 86.8678 14.108 88.1728 14.108ZM88.1728 13.298C87.5068 13.298 87.0568 12.884 87.0568 12.056V11.264C87.0568 10.436 87.5068 10.022 88.1728 10.022C88.8388 10.022 89.2888 10.436 89.2888 11.264V12.056C89.2888 12.884 88.8388 13.298 88.1728 13.298Z" fill="#212833"/>
<path d="M92.3978 14V11.012C92.3978 10.526 92.8298 10.265 93.6038 10.265H93.9908V9.32003H93.7298C92.9828 9.32003 92.5778 9.74303 92.4428 10.22H92.3978V9.32003H91.4168V14H92.3978Z" fill="#212833"/>
<path d="M45.762 29V27.6H41.786V19.228H40.204V29H45.762Z" fill="#212833"/>
<path d="M48.0397 20.418C48.6697 20.418 48.9357 20.082 48.9357 19.62V19.382C48.9357 18.92 48.6697 18.584 48.0397 18.584C47.4097 18.584 47.1297 18.92 47.1297 19.382V19.62C47.1297 20.082 47.4097 20.418 48.0397 20.418ZM47.2697 29H48.7957V21.72H47.2697V29Z" fill="#212833"/>
<path d="M52.5008 29V24.128C52.5008 23.274 53.2848 22.868 54.0828 22.868C55.0208 22.868 55.4548 23.442 55.4548 24.576V29H56.9808V24.38C56.9808 22.588 56.0988 21.552 54.6148 21.552C53.4948 21.552 52.8788 22.14 52.5708 22.924H52.5008V21.72H50.9748V29H52.5008Z" fill="#212833"/>
<path d="M63.5059 29H65.0319V21.72H63.5059V26.592C63.5059 27.446 62.7359 27.852 61.9519 27.852C61.0139 27.852 60.5519 27.264 60.5519 26.158V21.72H59.0259V26.354C59.0259 28.146 59.9079 29.168 61.4059 29.168C62.6099 29.168 63.1839 28.51 63.4499 27.796H63.5059V29Z" fill="#212833"/>
<path d="M66.405 29H68.029L69.779 26.354H69.821L71.501 29H73.265L70.731 25.304L73.223 21.72H71.599L69.919 24.254H69.877L68.239 21.72H66.475L68.967 25.318L66.405 29Z" fill="#212833"/>
</svg>
