<svg height="450pt" viewBox="0 0 450 450.20634" width="450pt" xmlns="http://www.w3.org/2000/svg"><path d="m405.71875 44.589844c-55.164062-55.238282-143.203125-59.703125-203.675781-10.335938-60.472657 49.371094-73.714844 136.519532-30.636719 201.625 31.976562 48.324219 88.644531 74.261719 146.117188 66.882813 57.472656-7.378907 105.753906-46.792969 124.484374-101.625 18.730469-54.832031 4.65625-115.546875-36.289062-156.546875zm-22.609375 192.320312c-46.863281 46.859375-122.839844 46.859375-169.703125-.003906-46.859375-46.863281-46.859375-122.839844 0-169.703125 46.863281-46.863281 122.839844-46.867187 169.703125-.003906 22.59375 22.457031 35.300781 53 35.300781 84.855469 0 31.855468-12.707031 62.398437-35.300781 84.855468zm0 0"/><path d="m11.695312 382.046875c-15.503906 15.640625-15.449218 40.871094.125 56.445313 15.570313 15.570312 40.800782 15.625 56.441407.121093l105.546875-105.542969-56.570313-56.566406zm0 0"/><path d="m190.703125 281.007812c-3.855469-3.203124-7.632813-6.585937-11.199219-10.167968-3.570312-3.585938-6.953125-7.386719-10.191406-11.25-.890625-1.070313-1.753906-2.152344-2.617188-3.238282-.984374-1.234374-2.03125-2.402343-2.976562-3.679687l-23.863281 23.855469 33.929687 33.925781 23.855469-23.808594c-1.25-.933593-2.402344-1.980469-3.664063-2.957031-1.097656-.914062-2.191406-1.777344-3.273437-2.679688zm0 0"/></svg>