<svg xmlns="http://www.w3.org/2000/svg" viewBox="0 0 48 48"  fill="rgba(132, 142, 156, 0.9)">
    <path clip-rule="evenodd"
          d="M41 9v23.478H24.654v5.218h4.577V39H18.769v-1.304h4.577v-5.218H7V9h34zm-1.307 1.304H8.308v20.87h31.385v-20.87z"></path>
    <path d="M41 32.478v.25h.25v-.25H41zM41 9h.25v-.25H41V9zM24.654 32.478v-.25h-.25v.25h.25zm0 5.218h-.25v.25h.25v-.25zm4.577 0h.25v-.25h-.25v.25zm0 1.304v.25h.25V39h-.25zm-10.462 0h-.25v.25h.25V39zm0-1.304v-.25h-.25v.25h.25zm4.577 0v.25h.25v-.25h-.25zm0-5.218h.25v-.25h-.25v.25zM7 32.478h-.25v.25H7v-.25zM7 9v-.25h-.25V9H7zm1.308 1.304v-.25h-.25v.25h.25zm31.385 0h.25v-.25h-.25v.25zM8.308 31.174h-.25v.25h.25v-.25zm31.385 0v.25h.25v-.25h-.25zm1.557 1.304V9h-.5v23.478h.5zm-16.596.25H41v-.5H24.654v.5zm.25 4.968v-5.218h-.5v5.218h.5zm4.327-.25h-4.577v.5h4.577v-.5zM29.48 39v-1.304h-.5V39h.5zm-10.712.25h10.462v-.5H18.769v.5zm-.25-1.554V39h.5v-1.304h-.5zm4.827-.25H18.77v.5h4.577v-.5zm-.25-4.968v5.218h.5v-5.218h-.5zM7 32.728h16.346v-.5H7v.5zM6.75 9v23.478h.5V9h-.5zM41 8.75H7v.5h34v-.5zM8.308 10.554h31.385v-.5H8.308v.5zm.25 20.62v-20.87h-.5v20.87h.5zm31.135-.25H8.308v.5h31.385v-.5zm-.25-20.62v20.87h.5v-20.87h-.5z"></path>
</svg>