<svg xmlns="http://www.w3.org/2000/svg" width="24" height="24"><path fill="#fff" fill-rule="evenodd" d="M12 7.588c-2.444 0-4.444 2.012-4.444 4.47a4.39 4.39 0 002.333 3.913l1-1.9c-.667-.447-1.111-1.118-1.111-2.012 0-1.23 1-2.235 2.222-2.235a2.235 2.235 0 012.222 2.235c0 .894-.444 1.565-1.222 2.012l1 1.9c1.333-.783 2.333-2.236 2.333-3.912.111-2.459-1.889-4.47-4.333-4.47zM12 2C6.444 2 2 6.47 2 12.059c0 3.8 2.111 7.041 5.111 8.83l1-1.9c-2.333-1.342-3.889-3.913-3.889-6.93C4.222 7.7 7.778 4.235 12 4.235c4.222 0 7.778 3.577 7.778 7.824a7.995 7.995 0 01-4 6.93l1 1.9C19.888 19.1 22 15.858 22 12.058 22 6.47 17.556 2 12 2z"/></svg>