<svg xmlns="http://www.w3.org/2000/svg" width="72" height="72"><g fill="none" fill-rule="evenodd"><path d="M0 0h72v72H0z" opacity=".2"/><path fill="#999" d="M26 15l37-6v39c0 6-6.201 9-12 9s-12-3-12-9 6.201-9 12-9c2.826 0 5.747.712 8 2.137V24.68l-29 4.694V54c0 6-6.201 9-12 9S6 60 6 54s6.201-9 12-9c2.826 0 5.747.712 8 2.137V15zm4 3.373v6.978l29-4.702v-6.97l-29 4.694zM25.5 54c0-4.5-7.5-4.5-7.5-4.5s-7.5 0-7.5 4.5 7.5 4.5 7.5 4.5 7.5 0 7.5-4.5zm33-6c0-4.5-7.5-4.5-7.5-4.5s-7.5 0-7.5 4.5 7.5 4.5 7.5 4.5 7.5 0 7.5-4.5z"/></g></svg>